<svg width="300" height="300" viewBox="0 0 300 300" fill="none" xmlns="http://www.w3.org/2000/svg">
      <path d="M140.128 1.60529L140.654 9.47092C140.709 10.2929 140.086 11.0031 139.264 11.067C138.443 11.1309 137.72 10.5249 137.648 9.70404L136.955 1.85134C136.877 0.966626 137.529 0.185322 138.414 0.116408C139.3 0.0474672 140.069 0.718775 140.128 1.60529Z" fill="#D6D6D6" />
      <path d="M128.528 2.84365L129.666 10.6413C129.785 11.4567 129.219 12.2136 128.405 12.3417C127.59 12.47 126.822 11.9222 126.685 11.109L125.38 3.3375C125.233 2.46073 125.822 1.62987 126.701 1.49158C127.58 1.35319 128.399 1.96326 128.528 2.84365Z" fill="#D6D6D6" />
      <path d="M117.053 4.9871L118.803 12.6767C118.985 13.4782 118.482 14.2753 117.683 14.4669C116.882 14.6587 116.074 14.1743 115.875 13.376L113.96 5.72579C113.745 4.86511 114.266 3.9921 115.129 3.78531C115.993 3.57829 116.856 4.12101 117.053 4.9871Z" fill="#D6D6D6" />
      <path d="M105.794 8.03578L108.142 15.5553C108.388 16.3417 107.949 17.1778 107.165 17.4327C106.381 17.6879 105.534 17.2679 105.271 16.4859L102.762 9.01876C102.478 8.17581 102.93 7.26212 103.776 6.98702C104.623 6.71152 105.529 7.18567 105.794 8.03578Z" fill="#D6D6D6" />
      <path d="M94.8002 11.9627L97.7367 19.2782C98.043 20.0412 97.6724 20.9075 96.9132 21.2229C96.1526 21.5388 95.2771 21.1877 94.9539 20.4302L91.8607 13.1795C91.5125 12.3634 91.8902 11.4189 92.7096 11.0785C93.5304 10.7375 94.469 11.1378 94.8002 11.9627Z" fill="#D6D6D6" />
      <path d="M84.1562 16.7501L87.6579 23.8073C88.0237 24.5446 87.7225 25.4384 86.9897 25.8131C86.2554 26.1886 85.3535 25.9073 84.9712 25.1766L81.3187 18.1963C80.907 17.4094 81.2094 16.4371 82.0001 16.0327C82.7924 15.6275 83.7606 15.953 84.1562 16.7501Z" fill="#D6D6D6" />
      <path d="M73.9205 22.3617L77.9645 29.1198C78.3873 29.8264 78.1572 30.7414 77.4559 31.1728C76.753 31.6052 75.8311 31.3955 75.3923 30.6966L71.2045 24.0266C70.7322 23.2743 70.9576 22.2811 71.7141 21.8157C72.4723 21.3492 73.4634 21.5978 73.9205 22.3617Z" fill="#D6D6D6" />
      <path d="M64.1537 28.7609L68.7143 35.1813C69.191 35.8524 69.0336 36.7822 68.3684 37.2672C67.7016 37.7532 66.766 37.6165 66.274 36.9542L61.5775 30.6325C61.048 29.9199 61.195 28.9125 61.9123 28.3895C62.6314 27.8652 63.6384 28.0354 64.1537 28.7609Z" fill="#D6D6D6" />
      <path d="M54.9186 35.9065L59.9645 41.9484C60.4925 42.5807 60.4082 43.5206 59.7825 44.0564C59.1553 44.5935 58.2111 44.5303 57.6684 43.9079L52.495 37.9748C51.9112 37.3054 51.9791 36.289 52.6538 35.7112C53.3301 35.132 54.3479 35.2231 54.9186 35.9065Z" fill="#D6D6D6" />
      <path d="M46.2671 43.7526L51.7677 49.3814C52.3435 49.9706 52.3328 50.9141 51.7508 51.4971C51.1674 52.0816 50.2209 52.0923 49.6313 51.5141L44.0121 46.0036C43.378 45.3817 43.3665 44.363 43.994 43.7344C44.6231 43.1042 45.6448 43.1157 46.2671 43.7526Z" fill="#D6D6D6" />
      <path d="M38.2534 52.2505L44.1745 57.4317C44.7947 57.9743 44.8577 58.9159 44.3228 59.5427C43.7866 60.171 42.8436 60.2556 42.2106 59.725L36.1803 54.6712C35.4993 54.1005 35.4085 53.0855 35.9853 52.4096C36.5634 51.7321 37.5831 51.664 38.2534 52.2505Z" fill="#D6D6D6" />
      <path d="M30.9248 61.349L37.2324 66.0515C37.8927 66.5438 38.0292 67.4772 37.545 68.1435C37.0598 68.8115 36.1267 68.9695 35.4544 68.4902L29.0478 63.9235C28.3245 63.4079 28.1548 62.4032 28.6768 61.6845C29.2002 60.9642 30.2109 60.8168 30.9248 61.349Z" fill="#D6D6D6" />
      <path d="M24.3311 70.9927L30.9851 75.1851C31.6823 75.6243 31.8916 76.5445 31.4609 77.2471C31.0292 77.9512 30.111 78.182 29.403 77.7569L22.6607 73.7082C21.8986 73.2505 21.6505 72.2614 22.1151 71.5035C22.5807 70.7439 23.5773 70.5178 24.3311 70.9927Z" fill="#D6D6D6" />
      <path d="M18.5116 81.1243L25.4738 84.7801C26.2033 85.1631 26.4842 86.0638 26.1101 86.7978C25.7352 87.5334 24.8383 87.8357 24.0993 87.4677L17.06 83.9626C16.2642 83.5663 15.9391 82.5994 16.3428 81.8074C16.7473 81.0137 17.7229 80.7102 18.5116 81.1243Z" fill="#D6D6D6" />
      <path d="M13.504 91.6843L20.7347 94.7798C21.4914 95.1038 21.8422 95.9785 21.5273 96.7391C21.2119 97.501 20.3427 97.8728 19.5778 97.5647L12.2821 94.6258C11.458 94.2938 11.0581 93.3561 11.3978 92.5352C11.7382 91.7129 12.6859 91.334 13.504 91.6843Z" fill="#D6D6D6" />
      <path d="M9.35068 102.604L16.7962 105.115C17.5779 105.379 17.9978 106.225 17.7433 107.01C17.4886 107.796 16.6497 108.236 15.8613 107.989L8.3632 105.639C7.51341 105.373 7.03944 104.468 7.31403 103.62C7.58903 102.772 8.50562 102.319 9.35068 102.604Z" fill="#D6D6D6" />
      <path d="M6.06336 113.821L13.6906 115.737C14.4891 115.937 14.9736 116.745 14.7823 117.546C14.5909 118.348 13.7914 118.852 12.9879 118.669L5.32107 116.919C4.45478 116.721 3.91195 115.857 4.11836 114.993C4.32501 114.128 5.20057 113.605 6.06336 113.821Z" fill="#D6D6D6" />
      <path d="M3.67892 125.261L11.4265 126.566C12.2404 126.703 12.7886 127.473 12.6606 128.288C12.5326 129.104 11.7737 129.671 10.9564 129.552L3.18257 128.413C2.30146 128.284 1.69094 127.464 1.82897 126.584C1.96711 125.704 2.80012 125.113 3.67892 125.261Z" fill="#D6D6D6" />
      <path d="M2.19478 136.855L10.023 137.548C10.845 137.621 11.4517 138.344 11.3879 139.167C11.3241 139.99 10.6123 140.615 9.78861 140.56L1.94745 140.033C1.05977 139.974 0.387623 139.204 0.45641 138.317C0.525223 137.43 1.30823 136.776 2.19478 136.855Z" fill="#D6D6D6" />
      <path d="M9.46904 151.654L1.62751 151.737C0.733372 151.746 0 151.029 0 150.135C0 149.24 0.733404 148.523 1.62758 148.533L9.46898 148.615C10.2992 148.624 10.9644 149.304 10.9644 150.135C10.9644 150.965 10.2993 151.645 9.46904 151.654Z" fill="#D6D6D6" />
      <path d="M1.94744 160.236L9.78861 159.71C10.6123 159.654 11.3241 160.279 11.3879 161.102C11.4517 161.925 10.8449 162.648 10.023 162.721L2.19478 163.414C1.30823 163.493 0.525219 162.839 0.456406 161.952C0.387619 161.065 1.05976 160.296 1.94744 160.236Z" fill="#D6D6D6" />
      <path d="M3.18256 171.856L10.9564 170.718C11.7737 170.598 12.5326 171.165 12.6606 171.981C12.7885 172.797 12.2404 173.566 11.4264 173.703L3.67891 175.009C2.80011 175.157 1.9671 174.566 1.82896 173.685C1.69093 172.806 2.30145 171.985 3.18256 171.856Z" fill="#D6D6D6" />
      <path d="M5.32106 183.351L12.9879 181.601C13.7914 181.417 14.5909 181.921 14.7823 182.723C14.9736 183.524 14.4891 184.332 13.6906 184.533L6.06334 186.448C5.20055 186.665 4.32499 186.142 4.11835 185.276C3.91194 184.412 4.45476 183.549 5.32106 183.351Z" fill="#D6D6D6" />
      <path d="M8.36318 194.63L15.8613 192.28C16.6497 192.033 17.4885 192.474 17.7433 193.26C17.9977 194.045 17.5779 194.891 16.7961 195.154L9.35066 197.666C8.5056 197.951 7.58901 197.497 7.31401 196.649C7.03942 195.802 7.51339 194.896 8.36318 194.63Z" fill="#D6D6D6" />
      <path d="M12.2821 205.644L19.5778 202.705C20.3427 202.397 21.2119 202.768 21.5273 203.53C21.8422 204.291 21.4914 205.166 20.7347 205.49L13.504 208.585C12.6859 208.935 11.7382 208.556 11.3978 207.734C11.058 206.913 11.458 205.976 12.2821 205.644Z" fill="#D6D6D6" />
      <path d="M17.06 216.307L24.0993 212.802C24.8383 212.434 25.7352 212.736 26.11 213.472C26.4842 214.206 26.2033 215.106 25.4738 215.489L18.5116 219.145C17.7229 219.559 16.7472 219.256 16.3428 218.462C15.9391 217.67 16.2641 216.703 17.06 216.307Z" fill="#D6D6D6" />
      <path d="M22.6606 226.561L29.403 222.513C30.111 222.087 31.0292 222.318 31.4608 223.022C31.8915 223.725 31.6823 224.645 30.9851 225.084L24.3311 229.277C23.5773 229.752 22.5806 229.525 22.115 228.766C21.6505 228.008 21.8985 227.019 22.6606 226.561Z" fill="#D6D6D6" />
      <path fill-rule="evenodd" clip-rule="evenodd" d="M28.6778 238.173C28.156 237.455 28.3255 236.452 29.0481 235.938L35.4459 231.385C36.116 230.908 37.0454 231.065 37.5294 231.73C38.0133 232.395 37.877 233.327 37.2173 233.818L30.9182 238.507C30.2066 239.037 29.1997 238.89 28.6778 238.173ZM35.975 247.418C35.3985 246.744 35.4893 245.73 36.1697 245.16L42.1911 240.122C42.8223 239.594 43.7617 239.678 44.2964 240.304C44.8311 240.929 44.7681 241.87 44.1484 242.411L38.2358 247.577C37.5674 248.161 36.5517 248.093 35.975 247.418ZM43.9715 256.066C43.3442 255.438 43.3557 254.421 43.9896 253.8L49.5999 248.307C50.188 247.732 51.1308 247.742 51.7127 248.324C52.2945 248.906 52.3051 249.849 51.7296 250.437L46.2374 256.048C45.6168 256.682 44.5989 256.693 43.9715 256.066ZM52.6179 264.063C51.9435 263.487 51.8757 262.471 52.4593 261.803L57.6241 255.89C58.1654 255.27 59.1063 255.207 59.7318 255.741C60.3572 256.276 60.4414 257.215 59.9135 257.846L54.8759 263.869C54.3065 264.549 53.2924 264.64 52.6179 264.063ZM61.8621 271.362C61.145 270.84 60.9982 269.833 61.5277 269.122L66.2159 262.822C66.7069 262.162 67.6392 262.025 68.3042 262.509C68.9691 262.993 69.1264 263.923 68.6497 264.593L64.0971 270.992C63.5828 271.714 62.5792 271.884 61.8621 271.362ZM71.6486 277.915C70.8924 277.45 70.6673 276.458 71.1397 275.707L75.3196 269.06C75.7576 268.363 76.6766 268.154 77.3777 268.585C78.0786 269.015 78.3084 269.93 77.8856 270.635L73.849 277.37C73.3927 278.131 72.4048 278.379 71.6486 277.915ZM81.9185 283.679C81.1283 283.276 80.8261 282.304 81.2379 281.518L84.8833 274.563C85.2651 273.834 86.1643 273.554 86.8967 273.928C87.629 274.302 87.93 275.195 87.5641 275.931L84.0691 282.963C83.6741 283.758 82.7088 284.083 81.9185 283.679ZM92.6111 288.617C91.7923 288.278 91.4149 287.334 91.7632 286.519L94.8503 279.295C95.173 278.539 96.0461 278.189 96.8049 278.504C97.5635 278.818 97.9338 279.684 97.6274 280.446L94.6967 287.735C94.366 288.558 93.43 288.957 92.6111 288.617ZM103.66 292.696C102.815 292.421 102.364 291.508 102.647 290.667L105.152 283.227C105.414 282.447 106.258 282.028 107.041 282.282C107.824 282.536 108.263 283.372 108.017 284.157L105.674 291.649C105.409 292.497 104.505 292.97 103.66 292.696ZM114.995 295.887C114.133 295.681 113.612 294.809 113.828 293.949L115.738 286.327C115.938 285.531 116.744 285.048 117.543 285.239C118.341 285.43 118.844 286.226 118.661 287.027L116.916 294.688C116.719 295.552 115.857 296.093 114.995 295.887ZM126.548 298.173C125.671 298.036 125.082 297.206 125.23 296.33L126.532 288.588C126.668 287.776 127.435 287.23 128.248 287.357C129.061 287.485 129.626 288.241 129.507 289.055L128.372 296.824C128.244 297.703 127.426 298.311 126.548 298.173ZM138.243 299.544C137.359 299.475 136.708 298.695 136.786 297.812L137.477 289.989C137.55 289.169 138.271 288.564 139.091 288.628C139.911 288.692 140.534 289.401 140.479 290.222L139.954 298.058C139.895 298.943 139.127 299.613 138.243 299.544ZM150.022 300C149.131 300 148.416 299.269 148.425 298.378L148.508 290.542C148.517 289.714 149.195 289.051 150.022 289.051C150.85 289.051 151.527 289.714 151.536 290.541L151.619 298.378C151.628 299.269 150.913 300 150.022 300ZM161.801 299.544C160.917 299.613 160.149 298.943 160.09 298.058L159.565 290.222C159.51 289.401 160.133 288.692 160.953 288.628C161.773 288.564 162.494 289.169 162.567 289.989L163.258 297.812C163.336 298.695 162.685 299.475 161.801 299.544ZM173.496 298.173C172.619 298.311 171.801 297.703 171.672 296.824L170.537 289.055C170.418 288.241 170.983 287.485 171.796 287.357C172.609 287.23 173.376 287.776 173.512 288.588L174.814 296.33C174.962 297.206 174.373 298.036 173.496 298.173ZM185.049 295.887C184.187 296.093 183.326 295.552 183.129 294.688L181.383 287.027C181.201 286.226 181.703 285.43 182.501 285.239C183.3 285.048 184.106 285.531 184.306 286.327L186.216 293.949C186.432 294.809 185.911 295.681 185.049 295.887ZM196.384 292.696C195.539 292.97 194.636 292.497 194.37 291.649L192.027 284.157C191.781 283.372 192.22 282.536 193.003 282.282C193.786 282.028 194.63 282.447 194.893 283.227L197.397 290.667C197.681 291.508 197.229 292.421 196.384 292.696ZM207.433 288.617C206.614 288.957 205.678 288.558 205.347 287.735L202.417 280.446C202.11 279.684 202.481 278.818 203.239 278.504C203.998 278.189 204.871 278.539 205.194 279.295L208.281 286.519C208.629 287.334 208.252 288.278 207.433 288.617ZM215.975 282.963C216.37 283.758 217.335 284.083 218.126 283.679C218.916 283.276 219.218 282.304 218.806 281.518L215.161 274.563C214.779 273.834 213.88 273.554 213.147 273.928C212.415 274.302 212.114 275.195 212.48 275.931L215.975 282.963ZM228.396 277.915C227.639 278.379 226.651 278.131 226.195 277.37L222.159 270.635C221.736 269.93 221.966 269.015 222.666 268.585C223.368 268.154 224.287 268.363 224.725 269.06L228.904 275.707C229.377 276.458 229.152 277.45 228.396 277.915ZM238.182 271.362C237.465 271.884 236.461 271.714 235.947 270.992L231.394 264.593C230.918 263.923 231.075 262.993 231.74 262.51C232.405 262.025 233.337 262.162 233.828 262.822L238.516 269.122C239.046 269.833 238.899 270.84 238.182 271.362ZM247.426 264.064C246.752 264.64 245.738 264.549 245.168 263.869L240.131 257.846C239.603 257.215 239.687 256.276 240.312 255.741C240.938 255.207 241.879 255.27 242.42 255.89L247.585 261.803C248.168 262.471 248.101 263.487 247.426 264.064ZM256.073 256.066C255.445 256.693 254.427 256.682 253.807 256.048L248.315 250.437C247.739 249.849 247.75 248.906 248.331 248.324C248.913 247.742 249.856 247.732 250.444 248.307L256.055 253.8C256.688 254.421 256.7 255.439 256.073 256.066ZM264.069 247.418C263.492 248.093 262.477 248.161 261.808 247.577L255.896 242.411C255.276 241.87 255.213 240.929 255.748 240.304C256.282 239.678 257.222 239.594 257.853 240.122L263.874 245.16C264.555 245.73 264.646 246.744 264.069 247.418ZM271.366 238.173C270.844 238.89 269.838 239.037 269.126 238.507L262.827 233.818C262.167 233.327 262.031 232.395 262.515 231.73C262.999 231.065 263.928 230.908 264.598 231.385L270.996 235.938C271.719 236.452 271.888 237.455 271.366 238.173ZM277.918 228.385C277.454 229.141 276.461 229.366 275.71 228.894L269.064 224.713C268.368 224.275 268.159 223.356 268.589 222.655C269.02 221.954 269.934 221.724 270.64 222.147L277.374 226.184C278.135 226.641 278.383 227.628 277.918 228.385Z" fill="#D6D6D6" />
      <path d="M298.378 151.597L290.543 151.514C289.716 151.506 289.053 150.828 289.053 150C289.053 149.172 289.716 148.494 290.543 148.486L298.378 148.403C299.269 148.394 300 149.109 300 150C300 150.891 299.269 151.606 298.378 151.597Z" fill="#D6D6D6" />
      <path d="M298.058 139.931L290.224 140.455C289.403 140.51 288.694 139.888 288.63 139.068C288.566 138.247 289.171 137.526 289.991 137.453L297.812 136.762C298.695 136.684 299.476 137.335 299.544 138.22C299.613 139.104 298.943 139.871 298.058 139.931Z" fill="#D6D6D6" />
      <path d="M296.824 128.347L289.058 129.482C288.243 129.601 287.487 129.036 287.359 128.223C287.232 127.41 287.778 126.643 288.59 126.506L296.33 125.204C297.206 125.057 298.036 125.646 298.174 126.523C298.312 127.4 297.703 128.218 296.824 128.347Z" fill="#D6D6D6" />
      <path d="M294.688 116.889L287.029 118.634C286.229 118.817 285.432 118.314 285.241 117.516C285.05 116.717 285.533 115.911 286.33 115.711L293.95 113.801C294.809 113.585 295.682 114.106 295.888 114.968C296.094 115.83 295.553 116.692 294.688 116.889Z" fill="#D6D6D6" />
      <path d="M291.65 105.645L284.16 107.989C283.375 108.234 282.539 107.796 282.285 107.013C282.031 106.23 282.45 105.386 283.23 105.123L290.667 102.618C291.509 102.335 292.423 102.786 292.697 103.631C292.971 104.476 292.498 105.38 291.65 105.645Z" fill="#D6D6D6" />
      <path d="M287.737 94.6666L280.45 97.5974C279.687 97.904 278.822 97.5336 278.507 96.7747C278.192 96.016 278.542 95.1429 279.298 94.8201L286.52 91.7329C287.336 91.3844 288.28 91.7619 288.619 92.5809C288.959 93.3998 288.56 94.3358 287.737 94.6666Z" fill="#D6D6D6" />
      <path d="M274.566 84.8517L281.52 81.2061C282.307 80.794 283.278 81.0963 283.682 81.8868C284.085 82.6771 283.761 83.6423 282.966 84.0373L275.935 87.5326C275.199 87.8987 274.305 87.5976 273.932 86.865C273.558 86.1326 273.838 85.2335 274.566 84.8517Z" fill="#D6D6D6" />
      <path d="M277.374 73.8156L270.64 77.8526C269.934 78.2757 269.02 78.0458 268.589 77.3446C268.159 76.6435 268.368 75.7247 269.064 75.2867L275.71 71.1064C276.461 70.6338 277.454 70.859 277.918 71.6154C278.383 72.3716 278.135 73.3593 277.374 73.8156Z" fill="#D6D6D6" />
      <path d="M270.996 64.0622L264.598 68.6154C263.928 69.0923 262.999 68.9349 262.515 68.2698C262.031 67.6049 262.167 66.6727 262.827 66.1816L269.126 61.493C269.838 60.9633 270.844 61.1101 271.366 61.8274C271.888 62.5445 271.719 63.5479 270.996 64.0622Z" fill="#D6D6D6" />
      <path d="M255.896 57.5886L261.808 52.4233C262.477 51.8394 263.493 51.9073 264.069 52.5819C264.646 53.2563 264.555 54.2702 263.874 54.8396L257.853 59.8779C257.222 60.406 256.283 60.3218 255.748 59.6961C255.213 59.0706 255.276 58.13 255.896 57.5886Z" fill="#D6D6D6" />
      <path d="M256.055 46.1998L250.444 51.6927C249.856 52.2685 248.913 52.2579 248.332 51.6759C247.75 51.094 247.739 50.1514 248.315 49.5634L253.807 43.9523C254.427 43.3181 255.445 43.3067 256.073 43.9342C256.7 44.5615 256.689 45.5791 256.055 46.1998Z" fill="#D6D6D6" />
      <path d="M247.585 38.1968L242.42 44.1105C241.879 44.7304 240.938 44.7934 240.312 44.2585C239.687 43.7238 239.603 42.7847 240.131 42.1536L245.168 36.1313C245.738 35.4506 246.752 35.3598 247.426 35.9365C248.101 36.5131 248.169 37.5286 247.585 38.1968Z" fill="#D6D6D6" />
      <path d="M238.517 30.8781L233.828 37.1784C233.337 37.8383 232.405 37.9746 231.74 37.4905C231.075 37.0066 230.918 36.0775 231.395 35.4074L235.947 29.0085C236.461 28.2857 237.465 28.1161 238.182 28.6381C238.899 29.1601 239.046 30.1666 238.517 30.8781Z" fill="#D6D6D6" />
      <path d="M228.905 24.2934L224.725 30.9403C224.287 31.6368 223.368 31.8458 222.667 31.4152C221.966 30.9847 221.736 30.0704 222.159 29.3648L226.195 22.6298C226.652 21.8686 227.639 21.6208 228.396 22.0853C229.152 22.5497 229.377 23.5422 228.905 24.2934Z" fill="#D6D6D6" />
      <path d="M218.806 18.4817L215.161 25.4373C214.779 26.1658 213.88 26.4462 213.148 26.0722C212.415 25.6983 212.114 24.8052 212.48 24.0689L215.975 17.0365C216.37 16.2419 217.335 15.9173 218.126 16.3209C218.916 16.7244 219.218 17.6959 218.806 18.4817Z" fill="#D6D6D6" />
      <path d="M208.281 13.481L205.194 20.7055C204.871 21.4608 203.998 21.8109 203.239 21.4962C202.481 21.1816 202.11 20.316 202.417 19.554L205.348 12.2647C205.678 11.4422 206.614 11.043 207.433 11.3826C208.252 11.7222 208.629 12.6659 208.281 13.481Z" fill="#D6D6D6" />
      <path d="M197.397 9.33346L194.893 16.7731C194.63 17.5531 193.786 17.9721 193.003 17.7178C192.22 17.4636 191.782 16.6282 192.027 15.8428L194.37 8.35075C194.636 7.50279 195.539 7.02984 196.384 7.30428C197.229 7.57868 197.681 8.49154 197.397 9.33346Z" fill="#D6D6D6" />
      <path d="M186.216 6.05084L184.306 13.6725C184.106 14.469 183.3 14.9523 182.502 14.7612C181.703 14.5701 181.201 13.7738 181.383 12.9733L183.129 5.31225C183.326 4.44812 184.187 3.90662 185.049 4.11288C185.911 4.31912 186.432 5.19123 186.216 6.05084Z" fill="#D6D6D6" />
      <path d="M174.815 3.66994L173.513 11.4121C173.376 12.2238 172.609 12.7704 171.796 12.6426C170.983 12.5148 170.418 11.7588 170.537 10.9445L171.672 3.17611C171.801 2.29747 172.619 1.68864 173.496 1.82654C174.373 1.96444 174.962 2.79432 174.815 3.66994Z" fill="#D6D6D6" />
      <path d="M163.258 2.18822L162.567 10.0112C162.494 10.8306 161.773 11.4355 160.953 11.3718C160.133 11.3081 159.51 10.5988 159.565 9.77805L160.09 1.94215C160.15 1.0572 160.917 0.387095 161.801 0.455803C162.685 0.524509 163.336 1.30475 163.258 2.18822Z" fill="#D6D6D6" />
      <path d="M151.619 1.6222L151.536 9.45848C151.528 10.286 150.85 10.9489 150.022 10.9489C149.195 10.9489 148.517 10.286 148.508 9.45855L148.425 1.62214C148.416 0.73095 149.131 0 150.022 0C150.913 0 151.628 0.730981 151.619 1.6222Z" fill="#D6D6D6" />
      <path d="M281.52 218.794L274.566 215.148C273.838 214.767 273.558 213.867 273.932 213.135C274.305 212.402 275.199 212.101 275.935 212.467L282.966 215.963C283.761 216.358 284.085 217.323 283.682 218.113C283.278 218.904 282.306 219.206 281.52 218.794Z" fill="#D6D6D6" />
      <path d="M286.52 208.267L279.298 205.18C278.542 204.857 278.192 203.984 278.507 203.225C278.822 202.466 279.687 202.096 280.45 202.403L287.737 205.334C288.56 205.664 288.959 206.6 288.619 207.419C288.28 208.238 287.336 208.616 286.52 208.267Z" fill="#D6D6D6" />
      <path d="M290.667 197.382L283.23 194.877C282.45 194.614 282.031 193.77 282.285 192.987C282.539 192.204 283.375 191.766 284.16 192.011L291.65 194.355C292.498 194.62 292.971 195.524 292.697 196.369C292.423 197.214 291.509 197.665 290.667 197.382Z" fill="#D6D6D6" />
      <path d="M293.95 186.199L286.33 184.289C285.533 184.089 285.05 183.283 285.241 182.484C285.432 181.686 286.229 181.183 287.029 181.366L294.688 183.111C295.553 183.308 296.094 184.17 295.888 185.032C295.682 185.894 294.809 186.415 293.95 186.199Z" fill="#D6D6D6" />
      <path d="M296.33 174.796L288.59 173.494C287.778 173.357 287.231 172.59 287.359 171.777C287.487 170.964 288.243 170.399 289.058 170.518L296.824 171.653C297.703 171.782 298.312 172.6 298.174 173.477C298.036 174.354 297.206 174.943 296.33 174.796Z" fill="#D6D6D6" />
      <path d="M297.812 163.238L289.991 162.547C289.171 162.474 288.566 161.753 288.63 160.933C288.694 160.112 289.403 159.49 290.224 159.545L298.058 160.07C298.943 160.129 299.613 160.896 299.544 161.781C299.476 162.665 298.695 163.316 297.812 163.238Z" fill="#D6D6D6" />
    </svg>